<svg xmlns="http://www.w3.org/2000/svg" xmlns:xlink="http://www.w3.org/1999/xlink" width="393" height="280" viewBox="0 0 393 280">
  <defs>
    <clipPath id="clip-path">
      <rect id="사각형_156" data-name="사각형 156" width="393" height="280" transform="translate(0 109)" fill="#fff" stroke="#707070" stroke-width="1"/>
    </clipPath>
    <clipPath id="clip-path-2">
      <rect id="사각형_155" data-name="사각형 155" width="558.796" height="150.673" fill="none"/>
    </clipPath>
  </defs>
  <g id="그룹_128" data-name="그룹 128" transform="translate(0 -109)">
    <rect id="사각형_157" data-name="사각형 157" width="393" height="220" transform="translate(0 109)" fill="#fffdf5"/>
    <g id="마스크_그룹_3" data-name="마스크 그룹 3" clip-path="url(#clip-path)">
      <g id="그룹_13" data-name="그룹 13" transform="translate(-79.432 238.087)">
        <rect id="사각형_81" data-name="사각형 81" width="50.972" height="26.176" transform="translate(347.81 50.517) rotate(-78.918)" fill="#73d2f2"/>
        <path id="패스_99" data-name="패스 99" d="M914.323,63.552l8.292-1.373,8.455-43.166-6.95-5.482Z" transform="translate(-540.824 -8.003)" fill="#437ced"/>
        <rect id="사각형_82" data-name="사각형 82" width="5.903" height="7.932" transform="translate(359.37 11.095) rotate(-78.917)" fill="#ffffd4"/>
        <rect id="사각형_83" data-name="사각형 83" width="5.903" height="7.932" transform="translate(357.581 20.228) rotate(-78.917)" fill="#ffffd4"/>
        <rect id="사각형_84" data-name="사각형 84" width="5.903" height="7.932" transform="translate(369.357 13.051) rotate(-78.917)" fill="#ffffd4"/>
        <rect id="사각형_85" data-name="사각형 85" width="5.903" height="7.932" transform="translate(367.568 22.184) rotate(-78.917)" fill="#ffffd4"/>
        <rect id="사각형_86" data-name="사각형 86" width="5.903" height="7.932" transform="translate(355.792 29.361) rotate(-78.917)" fill="#ffffd4"/>
        <rect id="사각형_87" data-name="사각형 87" width="5.903" height="7.932" transform="translate(365.779 31.318) rotate(-78.917)" fill="#ffffd4"/>
        <rect id="사각형_88" data-name="사각형 88" width="5.903" height="7.932" transform="translate(354.088 38.062) rotate(-78.917)" fill="#ffffd4"/>
        <rect id="사각형_89" data-name="사각형 89" width="5.903" height="7.932" transform="translate(364.075 40.019) rotate(-78.917)" fill="#ffffd4"/>
        <rect id="사각형_90" data-name="사각형 90" width="5.903" height="7.932" transform="translate(352.383 46.763) rotate(-78.917)" fill="#ffffd4"/>
        <rect id="사각형_91" data-name="사각형 91" width="5.903" height="7.932" transform="translate(362.371 48.72) rotate(-78.917)" fill="#ffffd4"/>
        <g id="그룹_12" data-name="그룹 12">
          <g id="그룹_11" data-name="그룹 11" clip-path="url(#clip-path-2)">
            <path id="패스_100" data-name="패스 100" d="M551.582,159.162c-40.2-27.976-138.105-65.455-250.976-65.455S96.8,133.307,50.039,159.979V206.1H551.582Z" transform="translate(-29.598 -55.428)" fill="#61a75d"/>
            <rect id="사각형_92" data-name="사각형 92" width="5.927" height="11.855" transform="matrix(0.998, -0.056, 0.056, 0.998, 163.534, 42.172)" fill="#61a75d"/>
            <path id="패스_101" data-name="패스 101" d="M402.276,50.03c.449,7.958-4.514,11.7-10.877,12.055s-11.716-2.795-12.165-10.753,3.892-22.706,10.255-23.066,12.337,13.806,12.787,21.764" transform="translate(-224.3 -16.715)" fill="#61a75d"/>
            <rect id="사각형_93" data-name="사각형 93" width="19.358" height="9.679" transform="translate(488.084 102.341) rotate(-62.112)" fill="#559b6f"/>
            <path id="패스_102" data-name="패스 102" d="M1232.562,147.248c-6.088,11.5-16.181,12.54-25.379,7.672s-14.019-13.795-7.931-25.3,24.6-28.458,33.8-23.59,5.6,29.712-.493,41.217" transform="translate(-707.757 -62.211)" fill="#559b6f"/>
            <rect id="사각형_94" data-name="사각형 94" width="11.253" height="5.627" transform="translate(386.085 51.984) rotate(-80.27)" fill="#5ba539"/>
            <path id="패스_103" data-name="패스 103" d="M955.521,54.4c-1.279,7.458-6.666,9.858-12.628,8.835s-10.242-5.08-8.964-12.538,8.435-20.176,14.4-19.153,8.473,15.4,7.194,22.855" transform="translate(-552.287 -18.622)" fill="#5ba539"/>
            <rect id="사각형_95" data-name="사각형 95" width="64.456" height="29.084" transform="translate(403.976 66.117) rotate(-80.163)" fill="#73d2f2"/>
            <path id="패스_104" data-name="패스 104" d="M1059.084,82.058,1079.51,85.6l9.686-55.862L1070.1,18.55Z" transform="translate(-626.451 -10.972)" fill="#437ced"/>
            <rect id="사각형_96" data-name="사각형 96" width="6.558" height="8.814" transform="translate(417.201 14.34) rotate(-80.164)" fill="#ffffd4"/>
            <rect id="사각형_97" data-name="사각형 97" width="6.558" height="8.814" transform="translate(415.435 24.529) rotate(-80.164)" fill="#ffffd4"/>
            <rect id="사각형_98" data-name="사각형 98" width="6.558" height="8.814" transform="translate(428.343 16.272) rotate(-80.164)" fill="#ffffd4"/>
            <rect id="사각형_99" data-name="사각형 99" width="6.558" height="8.814" transform="translate(426.576 26.461) rotate(-80.164)" fill="#ffffd4"/>
            <rect id="사각형_100" data-name="사각형 100" width="6.558" height="8.814" transform="translate(413.668 34.718) rotate(-80.164)" fill="#ffffd4"/>
            <rect id="사각형_101" data-name="사각형 101" width="6.558" height="8.814" transform="translate(424.81 36.65) rotate(-80.164)" fill="#ffffd4"/>
            <rect id="사각형_102" data-name="사각형 102" width="6.558" height="8.814" transform="translate(411.985 44.425) rotate(-80.164)" fill="#ffffd4"/>
            <rect id="사각형_103" data-name="사각형 103" width="6.558" height="8.814" transform="translate(423.126 46.356) rotate(-80.164)" fill="#ffffd4"/>
            <rect id="사각형_104" data-name="사각형 104" width="6.558" height="8.814" transform="translate(410.302 54.131) rotate(-80.164)" fill="#ffffd4"/>
            <rect id="사각형_105" data-name="사각형 105" width="6.558" height="8.814" transform="translate(421.443 56.063) rotate(-80.164)" fill="#ffffd4"/>
            <rect id="사각형_106" data-name="사각형 106" width="6.558" height="8.814" transform="translate(408.618 63.838) rotate(-80.164)" fill="#ffffd4"/>
            <rect id="사각형_107" data-name="사각형 107" width="6.558" height="8.814" transform="translate(419.76 65.77) rotate(-80.164)" fill="#ffffd4"/>
            <rect id="사각형_108" data-name="사각형 108" width="64.456" height="29.084" transform="translate(445.714 71.308) rotate(-77.832)" fill="#73d2f2"/>
            <path id="패스_105" data-name="패스 105" d="M1160.705,98.333l20.266,4.37,11.951-55.421-18.63-11.957Z" transform="translate(-686.561 -20.894)" fill="#437ced"/>
            <rect id="사각형_109" data-name="사각형 109" width="6.558" height="19.734" transform="translate(461.514 20.191) rotate(-77.832)" fill="#ffffd4"/>
            <rect id="사각형_110" data-name="사각형 110" width="6.558" height="19.734" transform="translate(459.398 30.003) rotate(-77.831)" fill="#ffffd4"/>
            <rect id="사각형_111" data-name="사각형 111" width="6.558" height="19.734" transform="translate(457.282 39.816) rotate(-77.832)" fill="#ffffd4"/>
            <rect id="사각형_112" data-name="사각형 112" width="6.558" height="19.734" transform="translate(455.119 49.847) rotate(-77.832)" fill="#ffffd4"/>
            <rect id="사각형_113" data-name="사각형 113" width="6.558" height="19.734" transform="translate(452.909 60.098) rotate(-77.832)" fill="#ffffd4"/>
            <path id="패스_106" data-name="패스 106" d="M963.763,157.682a35.513,35.513,0,1,1,69.372,15.241" transform="translate(-570.069 -76.766)" fill="#61a75d"/>
            <path id="패스_107" data-name="패스 107" d="M1079.492,202.918a35.513,35.513,0,1,1,69.372,15.241" transform="translate(-638.523 -103.523)" fill="#61a75d"/>
            <path id="패스_108" data-name="패스 108" d="M1196.064,244.378a35.513,35.513,0,1,1,69.372,15.241" transform="translate(-707.475 -128.047)" fill="#61a75d"/>
            <rect id="사각형_114" data-name="사각형 114" width="11.002" height="22.004" transform="translate(50.392 78.919) rotate(-21.144)" fill="#5ba539"/>
            <path id="패스_109" data-name="패스 109" d="M81.937,46.745c2.054,5.31-4.5,12.792-14.634,16.712s-20.018,2.794-22.071-2.516,4.5-12.792,14.634-16.712,20.018-2.794,22.071,2.516" transform="translate(-26.532 -24.779)" fill="#5ba539"/>
            <path id="패스_110" data-name="패스 110" d="M94.71,79.21c2.719,7.031-5.957,16.94-19.379,22.131s-26.508,3.7-29.228-3.332,5.957-16.94,19.379-22.131,26.508-3.7,29.228,3.332" transform="translate(-26.975 -43.051)" fill="#5ba539"/>
            <path id="패스_111" data-name="패스 111" d="M110.959,120.968c3.021,7.81-6.616,18.816-21.525,24.582s-29.443,4.109-32.464-3.7,6.616-18.816,21.525-24.582,29.443-4.109,32.464,3.7" transform="translate(-33.37 -67.33)" fill="#5ba539"/>
            <rect id="사각형_115" data-name="사각형 115" width="29.084" height="64.456" transform="matrix(0.992, -0.125, 0.125, 0.992, 110.677, 6.178)" fill="#73d2f2"/>
            <path id="패스_112" data-name="패스 112" d="M250.582,79.079l-20.57,2.583-7.063-56.253,19.6-10.284Z" transform="translate(-131.875 -8.947)" fill="#437ced"/>
            <rect id="사각형_116" data-name="사각형 116" width="19.734" height="6.558" transform="matrix(0.992, -0.125, 0.125, 0.992, 115.893, 10.159)" fill="#ffffd4"/>
            <rect id="사각형_117" data-name="사각형 117" width="19.733" height="6.558" transform="translate(117.144 20.118) rotate(-7.156)" fill="#ffffd4"/>
            <rect id="사각형_118" data-name="사각형 118" width="19.734" height="6.558" transform="matrix(0.992, -0.125, 0.125, 0.992, 118.394, 30.078)" fill="#ffffd4"/>
            <rect id="사각형_119" data-name="사각형 119" width="19.734" height="6.558" transform="matrix(0.992, -0.125, 0.125, 0.992, 119.673, 40.26)" fill="#ffffd4"/>
            <rect id="사각형_120" data-name="사각형 120" width="29.084" height="79.168" transform="translate(68.403 4.695) rotate(-9.29)" fill="#73d2f2"/>
            <path id="패스_113" data-name="패스 113" d="M152.42,89.623l-20.46,3.347L120.433,22.5,139.64,11.493Z" transform="translate(-71.237 -6.798)" fill="#437ced"/>
            <rect id="사각형_121" data-name="사각형 121" width="5.128" height="6.558" transform="translate(89.621 6.728) rotate(-9.288)" fill="#ffffd4"/>
            <rect id="사각형_122" data-name="사각형 122" width="5.128" height="6.558" transform="translate(91.28 16.867) rotate(-9.288)" fill="#ffffd4"/>
            <rect id="사각형_123" data-name="사각형 123" width="5.128" height="6.558" transform="translate(92.938 27.005) rotate(-9.288)" fill="#ffffd4"/>
            <rect id="사각형_124" data-name="사각형 124" width="5.128" height="6.558" transform="translate(94.597 37.144) rotate(-9.288)" fill="#ffffd4"/>
            <rect id="사각형_125" data-name="사각형 125" width="5.128" height="6.558" transform="translate(96.255 47.283) rotate(-9.293)" fill="#ffffd4"/>
            <rect id="사각형_126" data-name="사각형 126" width="5.128" height="6.558" transform="translate(97.913 57.421) rotate(-9.293)" fill="#ffffd4"/>
            <rect id="사각형_127" data-name="사각형 127" width="5.128" height="6.558" transform="translate(99.572 67.56) rotate(-9.293)" fill="#ffffd4"/>
            <rect id="사각형_128" data-name="사각형 128" width="5.128" height="6.558" transform="translate(81.763 8.014) rotate(-9.288)" fill="#ffffd4"/>
            <rect id="사각형_129" data-name="사각형 129" width="5.128" height="6.558" transform="translate(83.421 18.152) rotate(-9.288)" fill="#ffffd4"/>
            <rect id="사각형_130" data-name="사각형 130" width="5.128" height="6.558" transform="translate(85.079 28.291) rotate(-9.288)" fill="#ffffd4"/>
            <rect id="사각형_131" data-name="사각형 131" width="5.128" height="6.558" transform="translate(86.738 38.429) rotate(-9.288)" fill="#ffffd4"/>
            <rect id="사각형_132" data-name="사각형 132" width="5.128" height="6.558" transform="translate(88.396 48.568) rotate(-9.288)" fill="#ffffd4"/>
            <rect id="사각형_133" data-name="사각형 133" width="5.128" height="6.558" transform="translate(90.055 58.706) rotate(-9.288)" fill="#ffffd4"/>
            <rect id="사각형_134" data-name="사각형 134" width="5.128" height="6.558" transform="translate(91.713 68.845) rotate(-9.288)" fill="#ffffd4"/>
            <rect id="사각형_135" data-name="사각형 135" width="5.128" height="6.558" transform="translate(73.904 9.3) rotate(-9.293)" fill="#ffffd4"/>
            <rect id="사각형_136" data-name="사각형 136" width="5.128" height="6.558" transform="translate(75.562 19.438) rotate(-9.293)" fill="#ffffd4"/>
            <rect id="사각형_137" data-name="사각형 137" width="5.128" height="6.558" transform="translate(77.22 29.577) rotate(-9.293)" fill="#ffffd4"/>
            <rect id="사각형_138" data-name="사각형 138" width="5.128" height="6.558" transform="translate(78.879 39.715) rotate(-9.293)" fill="#ffffd4"/>
            <rect id="사각형_139" data-name="사각형 139" width="5.128" height="6.558" transform="translate(80.537 49.854) rotate(-9.293)" fill="#ffffd4"/>
            <rect id="사각형_140" data-name="사각형 140" width="5.128" height="6.558" transform="translate(82.196 59.992) rotate(-9.293)" fill="#ffffd4"/>
            <rect id="사각형_141" data-name="사각형 141" width="5.128" height="6.558" transform="translate(83.854 70.13) rotate(-9.288)" fill="#ffffd4"/>
            <path id="패스_114" data-name="패스 114" d="M.134,219.581A35.513,35.513,0,1,1,70.9,213.476" transform="translate(0 -107.07)" fill="#61a75d"/>
            <path id="패스_115" data-name="패스 115" d="M119.608,174.315a35.513,35.513,0,0,1,70.764-6.106" transform="translate(-70.669 -80.295)" fill="#61a75d"/>
            <path id="패스_116" data-name="패스 116" d="M240.36,144.476a35.513,35.513,0,0,1,70.764-6.106" transform="translate(-142.094 -62.645)" fill="#61a75d"/>
            <path id="패스_117" data-name="패스 117" d="M728.276,221.737l-11.342-.164a8.267,8.267,0,0,0-8.386,8.146l-.009.653,19.608.284Z" transform="translate(-419.103 -131.06)" fill="#28214e"/>
            <path id="패스_118" data-name="패스 118" d="M839.091,141.549l3.773,10.593a8.268,8.268,0,0,0,10.562,5.014l.615-.219-6.547-18.38Z" transform="translate(-496.325 -81.956)" fill="#28214e"/>
            <path id="패스_119" data-name="패스 119" d="M737.276,164.862l-13.56-.2,9.518-39.271,13.56.2Z" transform="translate(-428.08 -74.171)" fill="#ecb0df"/>
            <path id="패스_120" data-name="패스 120" d="M800.213,145.943l-4.394-11.979-13.359,3.712-2.938-11.811-13.56-.2,7.224,27.737Z" transform="translate(-453.068 -74.334)" fill="#ecb0df"/>
            <path id="패스_121" data-name="패스 121" d="M751.174,142.075,737.8,140.692l3.766-15.3,13.56.2Z" transform="translate(-436.41 -74.172)" fill="#437ced"/>
            <path id="패스_122" data-name="패스 122" d="M782.095,135.717l-2.573-9.852-13.56-.2,3.589,13.929Z" transform="translate(-453.069 -74.334)" fill="#437ced"/>
            <path id="패스_123" data-name="패스 123" d="M788.173,57.785c1.765,2.067.832,5.761-2.084,8.249s-6.71,2.83-8.474.763-.832-5.761,2.084-8.249,6.71-2.83,8.474-.763" transform="translate(-459.433 -33.38)"/>
            <path id="패스_124" data-name="패스 124" d="M800.857,70.842c1.765,2.067.831,5.761-2.084,8.249s-6.71,2.83-8.474.763-.832-5.761,2.084-8.249,6.71-2.83,8.474-.763" transform="translate(-466.936 -41.104)"/>
            <path id="패스_125" data-name="패스 125" d="M813.542,83.9c1.765,2.067.832,5.761-2.084,8.249s-6.71,2.83-8.474.763-.832-5.761,2.084-8.249,6.71-2.83,8.474-.763" transform="translate(-474.439 -48.827)"/>
            <path id="패스_126" data-name="패스 126" d="M826.226,96.956c1.765,2.067.831,5.761-2.084,8.249s-6.71,2.83-8.474.763-.832-5.761,2.084-8.249,6.71-2.83,8.474-.763" transform="translate(-481.942 -56.55)"/>
            <path id="패스_127" data-name="패스 127" d="M770.272,57.569a5.7,5.7,0,1,1-2.833-7.54,5.7,5.7,0,0,1,2.833,7.54" transform="translate(-449.181 -29.29)" fill="#ecb0df"/>
            <path id="패스_128" data-name="패스 128" d="M762.761,51.257s3.715.363,6.185-1.823a5.3,5.3,0,0,0-3.476.032,5.585,5.585,0,0,0-2.709,1.791" transform="translate(-451.175 -29.079)"/>
            <path id="패스_129" data-name="패스 129" d="M776.165,49.449s1.394,3.534,4.52,4.757a5.393,5.393,0,0,0-1.641-3.134,5.684,5.684,0,0,0-2.879-1.623" transform="translate(-459.104 -29.249)"/>
            <path id="패스_130" data-name="패스 130" d="M764.53,64.549a2.729,2.729,0,0,1-1.933-.712,4.542,4.542,0,0,1-1.146-3.033l.409,0a4.2,4.2,0,0,0,1.018,2.732,2.434,2.434,0,0,0,1.93.591c2.361-.181,2.5-3.31,2.5-3.443l.408.013c0,.036-.151,3.628-2.877,3.837q-.157.012-.308.012" transform="translate(-450.401 -35.897)"/>
            <path id="패스_131" data-name="패스 131" d="M758.209,74.111l-1.577-.023A10.018,10.018,0,0,0,746.5,83.932l-.17,11.714,21.553.312.169-11.714a10.018,10.018,0,0,0-9.843-10.132" transform="translate(-441.456 -43.823)" fill="#ffff64"/>
            <path id="패스_132" data-name="패스 132" d="M714.905,141.371a9.08,9.08,0,0,1-17.83,3.45c-.953-4.924,5.672-19.311,5.672-19.311s11.206,10.938,12.159,15.861" transform="translate(-412.267 -74.24)" fill="#ffffef"/>
            <path id="패스_133" data-name="패스 133" d="M711.6,154.558c.031-.078.063-.155.1-.232.048-.115-.039.092.016-.036l.054-.126c.044-.1.089-.2.135-.306a7.2,7.2,0,0,1,.624-1.18,1.688,1.688,0,0,1,.537-.548c.239-.125.454.013.663.144a10.51,10.51,0,0,1,1.632,1.291c.429.407,1.08-.242.65-.65a10.13,10.13,0,0,0-1.955-1.518,1.5,1.5,0,0,0-1.136-.2,1.872,1.872,0,0,0-.9.637,8.919,8.919,0,0,0-1.3,2.474.463.463,0,0,0,.321.565.471.471,0,0,0,.565-.321" transform="translate(-420.377 -89.412)" fill="#325b0d"/>
            <path id="패스_134" data-name="패스 134" d="M720.222,154.961a3.484,3.484,0,0,0,.928-.029,1.039,1.039,0,0,0,.752-.415,1.264,1.264,0,0,0,.049-.966,6.255,6.255,0,0,0-.208-.784.46.46,0,1,0-.886.244,5.99,5.99,0,0,1,.258,1.075c-.005-.041-.011-.081-.016-.122a.82.82,0,0,1,.005.161c.006-.041.011-.081.016-.122a.364.364,0,0,1-.009.052c-.015.047-.008.034.02-.04a.244.244,0,0,1-.017.028c-.02.03-.007.013.039-.051a.341.341,0,0,1-.031.029c.063-.047.08-.06.05-.041l-.028.016c-.042.02-.025.014.051-.019a2.691,2.691,0,0,1-.352.076l.122-.016a3.132,3.132,0,0,1-.745,0,.458.458,0,0,0-.325.134.459.459,0,0,0,0,.65.532.532,0,0,0,.325.134" transform="translate(-425.741 -90.161)" fill="#325b0d"/>
            <path id="패스_135" data-name="패스 135" d="M724.182,161.455c.168.241.326.489.477.74.131.219.257.442.368.672.021.044.042.088.062.133s.025.058.008.019c.011.027.022.055.031.083a2.141,2.141,0,0,1,.09.333.813.813,0,0,1-.489,1.044,8.349,8.349,0,0,1-2.163.413.471.471,0,0,0-.459.46.463.463,0,0,0,.459.46,11.83,11.83,0,0,0,2.052-.341,1.919,1.919,0,0,0,1.372-.959,2.974,2.974,0,0,0-.524-2.758c-.154-.259-.317-.514-.489-.762a.472.472,0,0,0-.629-.165.463.463,0,0,0-.165.629" transform="translate(-427.128 -95.093)" fill="#325b0d"/>
            <path id="패스_136" data-name="패스 136" d="M721.746,168.583a4.062,4.062,0,0,0-.558.609,1.359,1.359,0,0,0-.357.84c.014.393.3.615.6.821a5.292,5.292,0,0,0,.685.4.46.46,0,1,0,.464-.793,5.233,5.233,0,0,1-.567-.325,2.478,2.478,0,0,1-.276-.195c.036.032.057.047.01,0-.015-.013-.047-.061-.016-.009.022.031.022.03,0,0l.021.053c-.028-.082,0,.066,0,.011s-.026.075,0,.026c.043-.091-.011,0-.006,0s.067-.121.074-.133c.027-.043.056-.085.086-.127l.05-.069c.032-.046-.053.065,0,0a3.749,3.749,0,0,1,.444-.462.462.462,0,0,0,0-.65.471.471,0,0,0-.65,0" transform="translate(-426.373 -99.64)" fill="#325b0d"/>
            <path id="패스_137" data-name="패스 137" d="M710.446,167.817c-.195.049-.391.092-.587.132s-.381.075-.572.105l-.14.021c-.055.008,0,0,.006,0l-.069.009c-.1.013-.208.023-.312.03-.081,0-.162.008-.243.007l-.109,0c-.108,0,.045.018-.022,0a1.443,1.443,0,0,1-.562-.207c.064.047-.13-.145-.08-.078a1.109,1.109,0,0,1-.081-.132c-.011-.02-.022-.041-.031-.062.02.045,0,0-.008-.022a1.419,1.419,0,0,1,0-.715,13.975,13.975,0,0,1,.574-2.132.464.464,0,0,0-.321-.565.469.469,0,0,0-.565.321,14.018,14.018,0,0,0-.567,2.095,2.069,2.069,0,0,0,.314,1.821c.657.79,1.826.617,2.71.457.3-.055.608-.119.908-.194a.46.46,0,0,0-.244-.886" transform="translate(-418.007 -97.118)" fill="#325b0d"/>
            <path id="패스_138" data-name="패스 138" d="M708.338,164.343a4.342,4.342,0,0,0-.278-.823,1.261,1.261,0,0,0-.529-.676.767.767,0,0,0-.687.008,2.143,2.143,0,0,0-.329.206,6.559,6.559,0,0,0-.694.565.464.464,0,0,0,0,.65.469.469,0,0,0,.65,0c.085-.08.172-.158.262-.232a1.331,1.331,0,0,0,.123-.1c-.033.036-.056.042-.005,0l.063-.047c.093-.068.188-.134.286-.195.022-.013.045-.025.067-.038.043-.028-.091.022-.013.007-.069.005-.086.008-.05.008s.02,0-.061-.008c-.024-.008-.1-.043-.035-.013.034.014-.074-.077-.027-.019.011.014.059.074.014.011s0,0,.01.018.027.045.04.068c.024.044.047.089.068.134.013.028.027.056.04.084s.042.1.014.031.007.017.012.031c.011.029.022.058.033.088q.027.074.05.148c.035.11.064.221.089.334a.464.464,0,0,0,.565.321.47.47,0,0,0,.321-.565" transform="translate(-417.417 -96.277)" fill="#325b0d"/>
            <rect id="사각형_142" data-name="사각형 142" width="25.309" height="8.638" transform="translate(293.392 44.111) rotate(-15.639)" fill="#ffff64"/>
            <path id="패스_139" data-name="패스 139" d="M696.829,108.221a1.293,1.293,0,0,0,.788,1.3l-2.031.609a1.367,1.367,0,0,0-.953,1.675,1.312,1.312,0,0,0,.858.86,1.284,1.284,0,0,0,.614,2.051,1.284,1.284,0,0,0,.614,2.051,1.312,1.312,0,0,0-.243,1.19,1.367,1.367,0,0,0,1.717.875l8.413-3.215-1.289-4.778-1.063-3.547-5.924-.32a1.418,1.418,0,0,0-1.5,1.254" transform="translate(-410.846 -63.27)" fill="#ecb0df"/>
            <rect id="사각형_143" data-name="사각형 143" width="3.649" height="0.408" transform="matrix(0.945, -0.326, 0.326, 0.945, 285.78, 53.285)"/>
            <rect id="사각형_144" data-name="사각형 144" width="3.649" height="0.408" transform="matrix(0.945, -0.326, 0.326, 0.945, 285.126, 51.265)"/>
            <rect id="사각형_145" data-name="사각형 145" width="3.649" height="0.408" transform="matrix(0.945, -0.326, 0.326, 0.945, 284.471, 49.246)"/>
            <rect id="사각형_146" data-name="사각형 146" width="0.409" height="5.317" transform="translate(314.975 60.24) rotate(-15.123)"/>
            <rect id="사각형_147" data-name="사각형 147" width="2.404" height="40.553" transform="matrix(0.866, -0.5, 0.5, 0.866, 247.901, 57.627)" fill="#28214e"/>
            <path id="패스_140" data-name="패스 140" d="M529.555,144.506l13.56-.2-3.7-47.859-14.7.339Z" transform="translate(-310.37 -57.051)" fill="#28214e"/>
            <path id="패스_141" data-name="패스 141" d="M506.85,114.893l12.721,6.227,4.893-29.16-13.56.2Z" transform="translate(-299.804 -54.395)" fill="#28214e"/>
            <path id="패스_142" data-name="패스 142" d="M483.728,138.473l-18.305,8.759,6.03,12.131,23.615-10.73" transform="translate(-275.299 -81.907)" fill="#28214e"/>
            <rect id="사각형_148" data-name="사각형 148" width="0.408" height="13.657" transform="translate(216.034 54.538) rotate(-3.572)"/>
            <path id="패스_143" data-name="패스 143" d="M538.023,214l11.244-.163a8.267,8.267,0,0,1,8.386,8.147l.009.652-19.51.283Z" transform="translate(-318.242 -126.486)" fill="#437ced"/>
            <path id="패스_144" data-name="패스 144" d="M454.916,162.113l4.984,10.08a8.267,8.267,0,0,1-3.746,11.075l-.585.289-8.648-17.491Z" transform="translate(-264.355 -95.89)" fill="#437ced"/>
            <rect id="사각형_149" data-name="사각형 149" width="18.501" height="10.716" transform="translate(253.702 90.315) rotate(-26.086)" fill="#e0571b"/>
            <path id="패스_145" data-name="패스 145" d="M663.671,210.412c-1.947.953-4.587-.443-5.9-3.118s-.794-5.617,1.153-6.57,4.587.443,5.9,3.118.794,5.617-1.153,6.57" transform="translate(-388.647 -118.551)" fill="#ffffef"/>
            <path id="패스_146" data-name="패스 146" d="M663.362,213.228a1.378,1.378,0,1,1,.986-1.961,1.582,1.582,0,0,1-.986,1.961" transform="translate(-391.044 -124.58)" fill="#28214e"/>
            <path id="패스_147" data-name="패스 147" d="M668.687,211.343c-.213.135-.585-.071-.83-.459s-.27-.812-.057-.946.585.071.83.459.27.812.057.946" transform="translate(-394.92 -124.154)" fill="#28214e"/>
            <rect id="사각형_150" data-name="사각형 150" width="2.404" height="48.625" transform="matrix(0.866, -0.5, 0.5, 0.866, 240.69, 52.845)" fill="#28214e"/>
            <path id="패스_148" data-name="패스 148" d="M558.444,43.168a5.7,5.7,0,1,0,6.272-5.054,5.7,5.7,0,0,0-6.272,5.054" transform="translate(-330.302 -22.525)" fill="#ecb0df"/>
            <path id="패스_149" data-name="패스 149" d="M579.753,42.675s-3.384-1.576-4.4-4.714a5.3,5.3,0,0,1,2.977,1.795,5.583,5.583,0,0,1,1.422,2.919" transform="translate(-340.323 -22.454)"/>
            <path id="패스_150" data-name="패스 150" d="M567.9,38.135s-3,2.335-6.31,1.8A5.393,5.393,0,0,1,564.6,38.07a5.685,5.685,0,0,1,3.3.065" transform="translate(-332.184 -22.402)"/>
            <path id="패스_151" data-name="패스 151" d="M572.119,53.272a3,3,0,0,1-1.728-.6c-2.242-1.565-.545-4.735-.527-4.766l.358.2c-.064.117-1.539,2.88.4,4.236a2.436,2.436,0,0,0,1.962.473,4.2,4.2,0,0,0,2.265-1.836l.353.205a4.54,4.54,0,0,1-2.528,2.029,2.563,2.563,0,0,1-.558.062" transform="translate(-336.702 -28.338)"/>
            <path id="패스_152" data-name="패스 152" d="M536.027,58.278l1.37.782a10.019,10.019,0,0,1,3.723,13.627L535.313,82.86l-19.39-10.9L522.4,62a10.019,10.019,0,0,1,13.627-3.723" transform="translate(-305.17 -33.699)" fill="#437ced"/>
            <rect id="사각형_151" data-name="사각형 151" width="8.639" height="25.309" transform="translate(220.196 36.074) rotate(-43.812)" fill="#437ced"/>
            <path id="패스_153" data-name="패스 153" d="M593.476,120.894l-5.264-2.735-2.718,2.514h0l-3.538,3.459,5.61,7.045a1.367,1.367,0,0,0,1.923.119,1.31,1.31,0,0,0,.4-1.149,1.284,1.284,0,0,0,1.571-1.454,1.284,1.284,0,0,0,1.571-1.454,1.31,1.31,0,0,0,1.176-.3,1.367,1.367,0,0,0,.031-1.926l-1.44-1.557a1.293,1.293,0,0,0,1.338-.716,1.418,1.418,0,0,0-.656-1.843" transform="translate(-344.229 -69.891)" fill="#ecb0df"/>
            <rect id="사각형_152" data-name="사각형 152" width="0.409" height="3.649" transform="translate(243.166 57.612) rotate(-40.41)"/>
            <rect id="사각형_153" data-name="사각형 153" width="0.409" height="3.65" transform="translate(244.756 56.205) rotate(-40.406)"/>
            <rect id="사각형_154" data-name="사각형 154" width="0.409" height="3.649" transform="translate(246.346 54.799) rotate(-40.41)"/>
          </g>
        </g>
      </g>
    </g>
  </g>
</svg>
