<?xml version="1.0" encoding="UTF-8"?>
<svg id="Layer_2" data-name="Layer 2" xmlns="http://www.w3.org/2000/svg" viewBox="0 0 57.48 10.14">
  <defs>
    <style>
      .cls-1 {
        fill: #168249;
      }

      .cls-2 {
        isolation: isolate;
      }
    </style>
  </defs>
  <g id="Layer_1-2" data-name="Layer 1">
    <g id="Connect" class="cls-2">
      <g class="cls-2">
        <path class="cls-1" d="m8.17,9.12c-.28.21-.57.39-.89.55-.32.15-.67.27-1.04.35s-.8.12-1.25.12c-.72,0-1.38-.13-1.99-.39-.61-.26-1.13-.62-1.57-1.07s-.79-.99-1.04-1.6c-.25-.62-.38-1.28-.38-1.99s.12-1.36.37-1.97c.25-.62.6-1.15,1.04-1.62.45-.46.98-.83,1.6-1.09.62-.27,1.3-.4,2.04-.4.45,0,.86.04,1.23.11.37.08.71.18,1.02.32.31.14.59.3.85.48.26.19.51.39.74.62l-1.11,1.27c-.39-.36-.81-.66-1.25-.88-.44-.22-.94-.34-1.5-.34-.47,0-.9.09-1.3.27-.4.18-.74.43-1.03.74-.29.31-.51.68-.67,1.1-.16.42-.24.87-.24,1.36s.08.94.24,1.37.38.8.67,1.11c.29.32.63.57,1.03.75.4.18.83.27,1.3.27.6,0,1.11-.11,1.54-.34s.85-.54,1.27-.93l1.11,1.12c-.25.27-.52.51-.79.72Z"/>
        <path class="cls-1" d="m17.6,7.77c-.2.47-.48.88-.83,1.23-.35.35-.77.63-1.25.83-.49.21-1.01.31-1.58.31s-1.08-.1-1.56-.3c-.48-.2-.9-.48-1.25-.83s-.62-.76-.82-1.22c-.2-.46-.29-.96-.29-1.49s.1-1.03.3-1.5.48-.88.83-1.23c.35-.35.77-.63,1.25-.83.48-.21,1.01-.31,1.58-.31s1.09.1,1.58.3c.48.2.9.48,1.25.83.35.35.62.76.82,1.22.2.47.29.97.29,1.5s-.1,1.03-.3,1.5Zm-1.57-2.39c-.11-.29-.27-.54-.47-.76-.2-.22-.44-.39-.71-.52-.27-.13-.58-.19-.91-.19s-.64.06-.91.19c-.27.13-.51.3-.7.51-.19.21-.34.46-.44.75-.1.29-.15.59-.15.92s.06.64.17.93.27.55.47.76c.2.21.44.38.71.51.27.13.57.19.9.19.34,0,.65-.06.93-.19.27-.13.51-.3.7-.51.19-.21.34-.46.44-.75.1-.28.15-.59.15-.92s-.06-.63-.17-.92Z"/>
        <path class="cls-1" d="m21.34,9.97h-1.71V2.58h1.71v1.16c.12-.18.25-.35.4-.5.14-.16.31-.29.5-.42.19-.12.4-.22.63-.29.23-.07.49-.11.77-.11.84,0,1.48.26,1.94.77.46.51.68,1.2.68,2.07v4.7h-1.71v-4.19c0-.58-.14-1.02-.41-1.33-.27-.31-.66-.47-1.16-.47s-.89.16-1.19.48c-.31.32-.46.77-.46,1.35v4.16Z"/>
        <path class="cls-1" d="m30.02,9.97h-1.71V2.58h1.71v1.16c.12-.18.25-.35.4-.5.14-.16.31-.29.5-.42.19-.12.4-.22.63-.29.23-.07.49-.11.77-.11.84,0,1.48.26,1.94.77.46.51.68,1.2.68,2.07v4.7h-1.71v-4.19c0-.58-.14-1.02-.41-1.33-.27-.31-.66-.47-1.16-.47s-.89.16-1.19.48c-.31.32-.46.77-.46,1.35v4.16Z"/>
        <path class="cls-1" d="m39,8.27c.38.32.85.48,1.4.48.42,0,.78-.08,1.09-.22.31-.15.61-.37.91-.66l.99.88c-.35.42-.78.76-1.27,1.01-.49.25-1.08.38-1.76.38-.53,0-1.03-.09-1.49-.28s-.86-.45-1.2-.78c-.34-.34-.61-.74-.8-1.21-.2-.47-.29-1-.29-1.57,0-.53.09-1.03.27-1.5s.43-.88.75-1.23c.32-.35.7-.63,1.14-.83.44-.21.92-.31,1.46-.31.59,0,1.1.11,1.55.32s.81.5,1.11.87c.29.36.52.79.67,1.27s.22.99.22,1.53c0,.07,0,.15,0,.22,0,.08-.01.15-.02.24h-5.43c.1.61.35,1.07.73,1.39Zm3.05-2.51c-.03-.27-.09-.53-.18-.76-.09-.24-.22-.44-.38-.62s-.35-.31-.57-.41-.47-.15-.75-.15c-.52,0-.95.18-1.29.54s-.55.83-.62,1.41h3.79Z"/>
        <path class="cls-1" d="m50.65,9.75c-.47.26-1.06.38-1.78.38-.55,0-1.06-.1-1.53-.3-.47-.2-.87-.48-1.22-.83s-.61-.76-.8-1.22-.29-.96-.29-1.49.1-1.03.29-1.5.46-.88.8-1.23c.34-.35.75-.63,1.22-.84.47-.21.98-.31,1.53-.31.7,0,1.28.12,1.74.35.46.23.87.54,1.21.92l-1.05,1.13c-.26-.27-.54-.49-.83-.67s-.66-.26-1.08-.26c-.31,0-.59.06-.85.19-.26.13-.49.3-.67.51-.19.21-.33.46-.44.75-.11.29-.16.59-.16.92s.05.65.16.94.26.54.46.76c.2.21.43.38.7.51.27.13.57.19.9.19.4,0,.75-.09,1.06-.26.3-.17.59-.39.86-.67l1.02,1.01c-.36.41-.78.74-1.25,1Z"/>
        <path class="cls-1" d="m55.5,7.66c0,.33.08.56.24.71s.38.22.67.22c.36,0,.71-.08,1.05-.25v1.39c-.21.12-.44.21-.69.28-.24.06-.52.1-.84.1s-.59-.04-.86-.11c-.26-.07-.49-.2-.69-.37-.19-.17-.34-.39-.44-.67s-.16-.62-.16-1.03v-3.9h-.94v-1.44h.94V.55h1.71v2.03h1.99v1.44h-1.99v3.64Z"/>
      </g>
    </g>
  </g>
</svg>