<svg xmlns="http://www.w3.org/2000/svg" xmlns:xlink="http://www.w3.org/1999/xlink" width="80" height="80" viewBox="0 0 80 80">
  <defs>
    <clipPath id="clip-path">
      <rect id="사각형_160" data-name="사각형 160" width="80" height="80" transform="translate(-210 536)" fill="#fff" stroke="#707070" stroke-width="1"/>
    </clipPath>
    <clipPath id="clip-path-2">
      <rect id="사각형_178" data-name="사각형 178" width="61.308" height="72.814" fill="none"/>
    </clipPath>
  </defs>
  <g id="마스크_그룹_4" data-name="마스크 그룹 4" transform="translate(210 -536)" clip-path="url(#clip-path)">
    <g id="그룹_28" data-name="그룹 28" transform="translate(-200.654 539.593)">
      <rect id="사각형_176" data-name="사각형 176" width="17.298" height="5.904" transform="translate(22.357 23.794) rotate(-78.972)" fill="#f6dd00"/>
      <g id="그룹_27" data-name="그룹 27">
        <g id="그룹_26" data-name="그룹 26" clip-path="url(#clip-path-2)">
          <path id="패스_181" data-name="패스 181" d="M89.959,2.805,90.5,6.823l2.475.527,3.326.613L98.03,2.054A.934.934,0,0,0,97.339.933a.9.9,0,0,0-.8.232.877.877,0,0,0-1.431-.3.9.9,0,0,0-.634-.537h0a.9.9,0,0,0-.8.232.9.9,0,0,0-.633-.537A.934.934,0,0,0,91.958.76l-.3,1.418a.884.884,0,0,0-.927-.465.969.969,0,0,0-.771,1.092" transform="translate(-64.835 0)" fill="#eaa5d6"/>
          <line id="선_1" data-name="선 1" x1="0.62" y2="2.416" transform="translate(31.076 1.148)" fill="none" stroke="#000" stroke-miterlimit="10" stroke-width="1"/>
          <line id="선_2" data-name="선 2" x1="0.62" y2="2.416" transform="translate(29.664 0.814)" fill="none" stroke="#000" stroke-miterlimit="10" stroke-width="1"/>
          <line id="선_3" data-name="선 3" x1="0.62" y2="2.416" transform="translate(28.252 0.48)" fill="none" stroke="#000" stroke-miterlimit="10" stroke-width="1"/>
          <path id="패스_182" data-name="패스 182" d="M82.2,209.62l7.6-1.172a5.651,5.651,0,0,1,6.446,4.723l.068.441-13.18,2.033Z" transform="translate(-59.249 -150.202)" fill="#28214e"/>
          <path id="패스_183" data-name="패스 183" d="M74.5,146.608l8.908-1.379-2.57-24.294-9.414,1.455Z" transform="translate(-51.484 -87.17)" fill="#437ced"/>
          <path id="패스_184" data-name="패스 184" d="M53.588,39.819c-1.227,1.4-.625,3.929,1.343,5.658s4.557,2,5.784.605.625-3.929-1.343-5.658-4.557-2-5.784-.605" transform="translate(-38.168 -28.058)"/>
          <path id="패스_185" data-name="패스 185" d="M40.716,52.692c-1.227,1.4-.625,3.929,1.343,5.658s4.557,2,5.784.605.625-3.929-1.343-5.658-4.557-2-5.784-.605" transform="translate(-28.89 -37.337)"/>
          <path id="패스_186" data-name="패스 186" d="M27.844,65.564c-1.227,1.4-.625,3.929,1.343,5.658s4.557,2,5.784.605.625-3.929-1.343-5.658-4.557-2-5.784-.605" transform="translate(-19.612 -46.615)"/>
          <path id="패스_187" data-name="패스 187" d="M14.972,78.436c-1.227,1.4-.625,3.929,1.343,5.658s4.557,2,5.784.605.625-3.929-1.343-5.658-4.557-2-5.784-.605" transform="translate(-10.334 -55.894)"/>
          <path id="패스_188" data-name="패스 188" d="M72.971,37.8a3.893,3.893,0,1,0,2.011-5.125A3.893,3.893,0,0,0,72.971,37.8" transform="translate(-52.363 -23.32)" fill="#ecb0df"/>
          <path id="패스_189" data-name="패스 189" d="M86.432,33.467a6.181,6.181,0,0,1-4.209-1.307,3.623,3.623,0,0,1,2.375.056,3.817,3.817,0,0,1,1.834,1.251" transform="translate(-59.266 -23.059)"/>
          <path id="패스_190" data-name="패스 190" d="M75.869,32.244a6.289,6.289,0,0,1-3.136,3.207,3.685,3.685,0,0,1,1.153-2.126,3.885,3.885,0,0,1,1.983-1.081" transform="translate(-52.426 -23.241)"/>
          <path id="패스_191" data-name="패스 191" d="M87.681,43.631s-.016,2.579-2.2,2.38c-1.758-.16-1.8-2.514-1.8-2.514" transform="translate(-60.317 -31.352)" fill="none" stroke="#000" stroke-miterlimit="10" stroke-width="1"/>
          <path id="패스_192" data-name="패스 192" d="M66.735,56.95h1.078a6.847,6.847,0,0,1,6.827,6.827v8.007H59.908V63.777a6.847,6.847,0,0,1,6.827-6.827" transform="translate(-43.182 -41.05)" fill="#f6dd00"/>
          <path id="패스_193" data-name="패스 193" d="M10.8,205.053a10.8,10.8,0,1,1,10.8-10.8,10.808,10.808,0,0,1-10.8,10.8m0-19.916a9.12,9.12,0,1,0,9.12,9.121,9.131,9.131,0,0,0-9.12-9.121" transform="translate(0 -132.239)" fill="#e0571b"/>
          <path id="패스_194" data-name="패스 194" d="M153.047,205.053a10.8,10.8,0,1,1,10.8-10.8,10.808,10.808,0,0,1-10.8,10.8m0-19.916a9.12,9.12,0,1,0,9.12,9.121,9.131,9.131,0,0,0-9.12-9.121" transform="translate(-102.535 -132.239)" fill="#e0571b"/>
          <path id="패스_195" data-name="패스 195" d="M76.231,171.31l-6.744-11.99c-24.943-5.674-34.471,12.2-34.471,12.2l18.627-1.178-4.78-18.363" transform="translate(-25.24 -109.55)" fill="none" stroke="#000" stroke-linecap="round" stroke-linejoin="round" stroke-width="2"/>
          <line id="선_4" data-name="선 4" x1="0.107" y2="18.948" transform="translate(44.248 30.822)" fill="none" stroke="#000" stroke-linecap="round" stroke-linejoin="round" stroke-width="2"/>
          <path id="패스_196" data-name="패스 196" d="M75.291,143.14H67.155a1.713,1.713,0,0,1,0-3.426h8.136a1.713,1.713,0,0,1,0,3.426" transform="translate(-47.171 -100.706)" fill="#e0571b"/>
          <path id="패스_197" data-name="패스 197" d="M151.244,99.219h-1.258a2.194,2.194,0,0,1-2.195-2.195V95.767a2.194,2.194,0,0,1,2.195-2.195h1.258a2.194,2.194,0,0,1,2.195,2.195v1.258a2.194,2.194,0,0,1-2.195,2.195" transform="translate(-106.528 -67.447)" fill="#e0571b"/>
          <path id="패스_198" data-name="패스 198" d="M93.524,181.08l6.178,4.572a5.65,5.65,0,0,1,1.181,7.9l-.266.358L89.9,185.981Z" transform="translate(-64.798 -130.523)" fill="#28214e"/>
          <path id="패스_199" data-name="패스 199" d="M79.154,134.79l-7.184-4.944,4.727-8.214L65.958,118.4a7.6,7.6,0,0,1-5.412-7.212l-.01-1.212,13.727-.03,14.7,7.273Z" transform="translate(-43.634 -79.253)" fill="#437ced"/>
          <path id="패스_200" data-name="패스 200" d="M79.154,134.867l-7.184-4.944L76.7,121.71l-10.739-3.228a7.6,7.6,0,0,1-5.412-7.212l-.01-1.212" transform="translate(-43.634 -79.33)" fill="none" stroke="#000" stroke-miterlimit="10" stroke-width="1"/>
          <path id="패스_201" data-name="패스 201" d="M89.9,198.632l10.72,7.933a4.8,4.8,0,0,0,1.152-4.817" transform="translate(-64.797 -143.174)" fill="none" stroke="#000" stroke-miterlimit="10" stroke-width="1"/>
          <rect id="사각형_177" data-name="사각형 177" width="5.904" height="17.298" transform="translate(21.12 26.336) rotate(-73.53)" fill="#f6dd00"/>
          <path id="패스_202" data-name="패스 202" d="M140.706,90.806l-4.051.16-.761,2.414h0l-.928,3.252,5.717,2.281a.934.934,0,0,0,1.182-.581.9.9,0,0,0-.155-.816.877.877,0,0,0,.44-1.4.878.878,0,0,0,.44-1.4.9.9,0,0,0,.595-.579.934.934,0,0,0-.635-1.154l-1.382-.436a.884.884,0,0,0,.552-.878.97.97,0,0,0-1.014-.872" transform="translate(-97.283 -65.452)" fill="#ecb0df"/>
          <line id="선_5" data-name="선 5" x1="2.346" y1="0.848" transform="translate(42.1 31.206)" fill="none" stroke="#000" stroke-miterlimit="10" stroke-width="1"/>
          <line id="선_6" data-name="선 6" x1="2.346" y1="0.848" transform="translate(42.567 29.833)" fill="none" stroke="#000" stroke-miterlimit="10" stroke-width="1"/>
          <line id="선_7" data-name="선 7" x1="2.346" y1="0.848" transform="translate(43.035 28.459)" fill="none" stroke="#000" stroke-miterlimit="10" stroke-width="1"/>
        </g>
      </g>
    </g>
  </g>
</svg>
