<svg xmlns="http://www.w3.org/2000/svg" xmlns:xlink="http://www.w3.org/1999/xlink" width="30" height="30" viewBox="0 0 30 30">
  <defs>
    <clipPath id="clip-path">
      <rect id="사각형_205" data-name="사각형 205" width="30" height="30" transform="translate(-3 -3)" fill="#168249" stroke="#168249" stroke-width="1"/>
    </clipPath>
    <clipPath id="clip-path-2">
      <rect id="사각형_207" data-name="사각형 207" width="22.777" height="22.156" transform="translate(0 0)" fill="none"/>
    </clipPath>
  </defs>
  <g id="그룹_75" data-name="그룹 75" transform="translate(6 11)">
    <g id="그룹_74" data-name="그룹 74" transform="translate(-3 -8)" clip-path="url(#clip-path)">
      <g id="그룹_80" data-name="그룹 80" transform="translate(0.612 0.922)">
        <g id="그룹_79" data-name="그룹 79" clip-path="url(#clip-path-2)">
          <path id="패스_366" data-name="패스 366" d="M19.488,8.693h0l.357.35c2.849-2.894,3.771-6.494,2.1-8.2A3.054,3.054,0,0,0,19.7,0h0a9.045,9.045,0,0,0-5.868,2.978A11.145,11.145,0,0,0,11.39,6.62,11.161,11.161,0,0,0,8.941,2.978h0A9.052,9.052,0,0,0,3.076,0h0A3.055,3.055,0,0,0,.836.846c-1.679,1.7-.756,5.3,2.1,8.2A9.068,9.068,0,0,0,8.8,12.02h0a3.1,3.1,0,0,0,2.109-.741l-.024,10.875,1,0,.024-10.84a3.115,3.115,0,0,0,2.063.7A9.052,9.052,0,0,0,19.84,9.04l-.356-.351Z" fill="#168249"/>
        </g>
      </g>
    </g>
  </g>
</svg>
