<svg xmlns="http://www.w3.org/2000/svg" xmlns:xlink="http://www.w3.org/1999/xlink" width="80" height="80" viewBox="0 0 80 80">
  <defs>
    <clipPath id="clip-path">
      <rect id="사각형_160" data-name="사각형 160" width="80" height="80" transform="translate(-210 536)" fill="#fff" stroke="#707070" stroke-width="1"/>
    </clipPath>
    <clipPath id="clip-path-2">
      <rect id="사각형_182" data-name="사각형 182" width="88.402" height="68.383" fill="none"/>
    </clipPath>
  </defs>
  <g id="마스크_그룹_4" data-name="마스크 그룹 4" transform="translate(210 -536)" clip-path="url(#clip-path)">
    <g id="그룹_30" data-name="그룹 30" transform="translate(-214.201 541.808)">
      <g id="그룹_29" data-name="그룹 29" clip-path="url(#clip-path-2)">
        <path id="패스_203" data-name="패스 203" d="M129.373,40.373a2.924,2.924,0,1,1-3.869-1.459,2.924,2.924,0,0,1,3.869,1.459" transform="translate(-92.081 -28.753)"/>
        <path id="패스_204" data-name="패스 204" d="M130.126,21.046a2.924,2.924,0,1,1-3.869-1.459,2.924,2.924,0,0,1,3.869,1.459" transform="translate(-92.641 -14.376)"/>
        <path id="패스_205" data-name="패스 205" d="M130.878,1.72A2.924,2.924,0,1,1,127.009.26a2.924,2.924,0,0,1,3.869,1.459" transform="translate(-93.2 0)"/>
        <path id="패스_206" data-name="패스 206" d="M82.427,243.77H74.6a5.183,5.183,0,0,0-5.183,5.183v.765H82.427Z" transform="translate(-51.636 -181.335)" fill="#0080ee"/>
        <path id="패스_207" data-name="패스 207" d="M153.311,243.77h7.828a5.183,5.183,0,0,1,5.183,5.183v.765H153.311Z" transform="translate(-114.045 -181.335)" fill="#0080ee"/>
        <path id="패스_208" data-name="패스 208" d="M94.962,167.664H85.919l5.967-26.277h9.043Z" transform="translate(-63.913 -105.175)"/>
        <path id="패스_209" data-name="패스 209" d="M134.412,167.664h9.043l-5.967-26.277h-9.043Z" transform="translate(-95.547 -105.175)"/>
        <path id="패스_210" data-name="패스 210" d="M129.095,64.111a3.8,3.8,0,1,1-3.8-3.8,3.8,3.8,0,0,1,3.8,3.8" transform="translate(-90.38 -44.865)" fill="#ffa9d9"/>
        <path id="패스_211" data-name="패스 211" d="M122.056,62.739a6.029,6.029,0,0,0,3.253-2.811,3.534,3.534,0,0,0-2.1.977,3.724,3.724,0,0,0-1.151,1.834" transform="translate(-90.795 -44.579)"/>
        <path id="패스_212" data-name="패스 212" d="M132.909,60.1a6.136,6.136,0,0,0,4.055,1.644,3.594,3.594,0,0,0-1.86-1.451,3.789,3.789,0,0,0-2.2-.193" transform="translate(-98.868 -44.646)"/>
        <path id="패스_213" data-name="패스 213" d="M128.46,73.786s.016,2.516,2.146,2.322c1.715-.156,1.758-2.453,1.758-2.453" transform="translate(-95.558 -54.79)" fill="none" stroke="#000" stroke-miterlimit="10" stroke-width="1"/>
        <path id="패스_214" data-name="패스 214" d="M116.621,86.45h-1.848a6.281,6.281,0,0,0-6.263,6.263v8.21h14.374v-8.21a6.281,6.281,0,0,0-6.263-6.263" transform="translate(-80.718 -64.308)" fill="#58c8ef"/>
        <rect id="사각형_179" data-name="사각형 179" width="16.877" height="5.76" transform="matrix(0.999, -0.042, 0.042, 0.999, 16.005, 23.043)" fill="#58c8ef"/>
        <path id="패스_215" data-name="패스 215" d="M37.479,85.864a.862.862,0,0,0,.314.962l-1.412.085a.912.912,0,0,0-.874.942.874.874,0,0,0,.425.689.856.856,0,0,0,.086,1.425.856.856,0,0,0,.086,1.425.874.874,0,0,0-.34.735.912.912,0,0,0,.981.83l5.952-.8-.107-3.3-.148-2.465-3.8-1.113a.946.946,0,0,0-1.166.584" transform="translate(-26.411 -63.408)" fill="#ffa9d9"/>
        <line id="선_8" data-name="선 8" y1="0.246" x2="2.421" transform="translate(9.676 27.724)" fill="none" stroke="#000" stroke-miterlimit="10" stroke-width="1"/>
        <line id="선_9" data-name="선 9" y1="0.246" x2="2.421" transform="translate(9.56 26.314)" fill="none" stroke="#000" stroke-miterlimit="10" stroke-width="1"/>
        <line id="선_10" data-name="선 10" y1="0.246" x2="2.421" transform="translate(9.444 24.903)" fill="none" stroke="#000" stroke-miterlimit="10" stroke-width="1"/>
        <path id="패스_216" data-name="패스 216" d="M222.055,15.377c0,2.133-3.862,10.469-3.862,10.469s-3.862-8.336-3.862-10.469a3.862,3.862,0,1,1,7.725,0" transform="translate(-159.435 -8.566)"/>
        <path id="패스_217" data-name="패스 217" d="M176.675,243.77h-7.828a5.183,5.183,0,0,0-5.183,5.183v.765h13.012Z" transform="translate(-121.745 -181.335)" fill="#17100e"/>
        <path id="패스_218" data-name="패스 218" d="M247.559,243.77h7.828a5.183,5.183,0,0,1,5.183,5.183v.765H247.559Z" transform="translate(-184.153 -181.335)" fill="#17100e"/>
        <rect id="사각형_180" data-name="사각형 180" width="16.877" height="5.824" transform="translate(60.167 25.656) rotate(-76.901)" fill="#fff"/>
        <path id="패스_219" data-name="패스 219" d="M189.21,167.664h-9.043l5.967-26.277h9.043Z" transform="translate(-134.022 -105.175)" fill="#1a7361"/>
        <path id="패스_220" data-name="패스 220" d="M228.66,167.664H237.7l-5.967-26.277h-9.043Z" transform="translate(-165.656 -105.175)" fill="#1a7361"/>
        <path id="패스_221" data-name="패스 221" d="M223.343,64.111a3.8,3.8,0,1,1-3.8-3.8,3.8,3.8,0,0,1,3.8,3.8" transform="translate(-160.489 -44.865)" fill="#ffa9d9"/>
        <path id="패스_222" data-name="패스 222" d="M216.3,62.739a6.029,6.029,0,0,0,3.253-2.811,3.534,3.534,0,0,0-2.1.977,3.724,3.724,0,0,0-1.151,1.834" transform="translate(-160.904 -44.579)"/>
        <path id="패스_223" data-name="패스 223" d="M227.157,60.1a6.136,6.136,0,0,0,4.055,1.644,3.594,3.594,0,0,0-1.86-1.451,3.789,3.789,0,0,0-2.2-.193" transform="translate(-168.977 -44.646)"/>
        <path id="패스_224" data-name="패스 224" d="M222.708,73.786s.016,2.516,2.146,2.322c1.715-.156,1.758-2.453,1.758-2.453" transform="translate(-165.667 -54.79)" fill="none" stroke="#000" stroke-miterlimit="10" stroke-width="1"/>
        <path id="패스_225" data-name="패스 225" d="M210.869,86.45h-1.848a6.281,6.281,0,0,0-6.263,6.263v8.21h14.374v-8.21a6.281,6.281,0,0,0-6.263-6.263" transform="translate(-150.827 -64.308)" fill="#fff"/>
        <path id="패스_226" data-name="패스 226" d="M248.379,13.131l.388,3.937,2.395.6,3.221.717,1.894-5.7a.912.912,0,0,0-.634-1.118.873.873,0,0,0-.786.2.856.856,0,0,0-1.384-.349.856.856,0,0,0-1.384-.349.874.874,0,0,0-.6-.546.912.912,0,0,0-1.088.684l-.345,1.372a.862.862,0,0,0-.887-.487.946.946,0,0,0-.791,1.037" transform="translate(-184.76 -7.81)" fill="#ffa9d9"/>
        <line id="선_11" data-name="선 11" x1="0.691" y2="2.333" transform="translate(69.396 3.941)" fill="none" stroke="#000" stroke-miterlimit="10" stroke-width="1"/>
        <line id="선_12" data-name="선 12" x1="0.691" y2="2.333" transform="translate(68.031 3.564)" fill="none" stroke="#000" stroke-miterlimit="10" stroke-width="1"/>
        <line id="선_13" data-name="선 13" x1="0.691" y2="2.333" transform="translate(66.666 3.188)" fill="none" stroke="#000" stroke-miterlimit="10" stroke-width="1"/>
        <path id="패스_227" data-name="패스 227" d="M.723,61.247l5.184,4.187a1.946,1.946,0,0,0,2.736-.291l9.663-11.965a1.946,1.946,0,0,0-.291-2.737l-5.184-4.187a1.946,1.946,0,0,0-2.737.291L.432,58.511a1.946,1.946,0,0,0,.291,2.737" transform="translate(0 -34.086)" fill="#fff"/>
        <rect id="사각형_181" data-name="사각형 181" width="3.869" height="7.788" transform="matrix(0.628, -0.778, 0.778, 0.628, 12.53, 11.814)" fill="#58c8ef"/>
        <line id="선_14" data-name="선 14" x1="2.436" y2="3.017" transform="translate(17.684 12.98)" fill="none" stroke="#3a52cb" stroke-miterlimit="10" stroke-width="1"/>
        <line id="선_15" data-name="선 15" x1="2.436" y2="3.017" transform="translate(16.616 12.118)" fill="none" stroke="#3a52cb" stroke-miterlimit="10" stroke-width="1"/>
        <line id="선_16" data-name="선 16" x1="2.436" y2="3.017" transform="translate(15.549 11.256)" fill="none" stroke="#3a52cb" stroke-miterlimit="10" stroke-width="1"/>
        <line id="선_17" data-name="선 17" x1="2.436" y2="3.017" transform="translate(14.482 10.394)" fill="none" stroke="#3a52cb" stroke-miterlimit="10" stroke-width="1"/>
        <line id="선_18" data-name="선 18" x1="2.436" y2="3.017" transform="translate(13.415 9.533)" fill="none" stroke="#3a52cb" stroke-miterlimit="10" stroke-width="1"/>
        <path id="패스_228" data-name="패스 228" d="M23.41,39.8a5.2,5.2,0,0,0-1.8-.339,4.585,4.585,0,0,0-1.823.245A4.864,4.864,0,0,0,18.181,40.9c-.5.506-.945,1.056-1.471,1.532-.477.432-1.348,1.1-1.961.518-.594-.568-.28-1.447.114-2.026a5.468,5.468,0,0,1,3.56-2.21,7.161,7.161,0,0,1,5,1.218c.139.089.268-.132.129-.221a7.612,7.612,0,0,0-4.67-1.315A5.854,5.854,0,0,0,15,40.333a2.628,2.628,0,0,0-.811,2.062,1.326,1.326,0,0,0,.474.812,1.147,1.147,0,0,0,1.014.17,4.309,4.309,0,0,0,1.813-1.356,14.9,14.9,0,0,1,1.559-1.566,3.161,3.161,0,0,1,1.013-.568,4.26,4.26,0,0,1,1.071-.166,5.294,5.294,0,0,1,2.214.329c.152.063.218-.185.068-.247" transform="translate(-10.534 -28.544)" fill="#009"/>
        <path id="패스_229" data-name="패스 229" d="M16.431,88.363l6.179-7.651c-.109,0-.218,0-.326.013-1.367.1-2.691.541-4.058.634a25.607,25.607,0,0,1-5.483-.661l-2.291,2.837a2.07,2.07,0,0,0,.31,2.911l2.758,2.228a2.07,2.07,0,0,0,2.911-.31" transform="translate(-7.433 -60.029)" fill="#58c8ef"/>
        <path id="패스_230" data-name="패스 230" d="M289.111,54.53l-1.6,2.063a5.936,5.936,0,0,1-8.33,1.049l-7.689-5.968,8.882-11.443,7.689,5.968a5.937,5.937,0,0,1,1.049,8.33" transform="translate(-201.956 -29.928)" fill="#715e49"/>
        <path id="패스_231" data-name="패스 231" d="M260.432,25.946c-3.626-3.082-7.181-8.289-6.552-13.277.183-1.452,1.039-3.208,2.662-3.485,1.4-.24,2.255,1.361,2.783,2.409,1.482,2.944,2.886,5.8,5.352,8.068.749.689,1.715-.564.97-1.249a19.119,19.119,0,0,1-3.984-5.606A15.608,15.608,0,0,0,259.269,8.7c-2.428-2.492-5.988-.218-6.745,2.665-1.53,5.829,2.7,12.227,6.938,15.833.776.66,1.744-.591.97-1.249" transform="translate(-187.609 -5.675)" fill="#715e49"/>
        <path id="패스_232" data-name="패스 232" d="M143.251,100.157h3.793a3.149,3.149,0,1,0,0-6.3h-4.095l-4.792-5.738h8.887a8.887,8.887,0,0,1,0,17.774h-3.86" transform="translate(-102.772 -65.552)" fill="#58c8ef"/>
        <path id="패스_233" data-name="패스 233" d="M173.858,100.157h-3.793a3.149,3.149,0,1,1,0-6.3h4.095l4.792-5.738h-8.887a8.887,8.887,0,0,0,0,17.774H173" transform="translate(-119.897 -65.552)" fill="#fff"/>
        <path id="패스_234" data-name="패스 234" d="M154.839,118.355h4.615a3.149,3.149,0,0,0,3.149-3.149c0-1.739,5.738-4.908,5.738,0a8.887,8.887,0,0,1-8.887,8.887H155.62" transform="translate(-115.181 -83.749)" fill="#58c8ef"/>
      </g>
    </g>
  </g>
</svg>
