<svg xmlns="http://www.w3.org/2000/svg" xmlns:xlink="http://www.w3.org/1999/xlink" width="80" height="80" viewBox="0 0 80 80">
  <defs>
    <clipPath id="clip-path">
      <rect id="사각형_160" data-name="사각형 160" width="80" height="80" transform="translate(-210 536)" fill="#fff" stroke="#707070" stroke-width="1"/>
    </clipPath>
    <clipPath id="clip-path-2">
      <rect id="사각형_166" data-name="사각형 166" width="64.827" height="69.387" fill="none"/>
    </clipPath>
  </defs>
  <g id="마스크_그룹_4" data-name="마스크 그룹 4" transform="translate(210 -536)" clip-path="url(#clip-path)">
    <g id="그룹_19" data-name="그룹 19" transform="translate(-202.413 541.306)">
      <g id="그룹_18" data-name="그룹 18" clip-path="url(#clip-path-2)">
        <path id="패스_154" data-name="패스 154" d="M181.546,202.869l-7.835,2.031a5.95,5.95,0,0,0-4.267,7.254l.118.455,13.594-3.525Z" transform="translate(-119.489 -143.221)" fill="#28214e"/>
        <path id="패스_155" data-name="패스 155" d="M4.686,103.387H29.5a4.686,4.686,0,0,1,4.686,4.686H0a4.686,4.686,0,0,1,4.686-4.686" transform="translate(0 -72.989)" fill="#52893d"/>
        <path id="패스_156" data-name="패스 156" d="M17.5,94.2H38.727a2.848,2.848,0,0,1,2.848,2.848H17.5Z" transform="translate(-12.355 -66.505)" fill="#51893d"/>
        <path id="패스_157" data-name="패스 157" d="M12.938,153.369H35.37l2.669-34.107H10.1Z" transform="translate(-7.132 -84.196)" fill="#79cb5f"/>
        <path id="패스_158" data-name="패스 158" d="M3.278,204.812A5.252,5.252,0,1,0,8.53,199.56a5.252,5.252,0,0,0-5.252,5.252" transform="translate(-2.314 -140.885)"/>
        <path id="패스_159" data-name="패스 159" d="M43.812,147.344l-.244-.164,4.33-6.455,1.829,2.522-.238.173-1.582-2.181Z" transform="translate(-30.758 -99.349)"/>
        <path id="패스_160" data-name="패스 160" d="M44.686,155.542l-3.492-.058-.93-3.312.283-.079.871,3.1,3.272.054Z" transform="translate(-28.426 -107.374)"/>
        <path id="패스_161" data-name="패스 161" d="M40.946,174.5l-8.317-.079,1.9-2.714.241.168-1.576,2.256,7.76.073Z" transform="translate(-23.035 -121.224)"/>
        <path id="패스_162" data-name="패스 162" d="M53.792,176.47l-.227-.187,2.051-2.484L53.8,171.08l.244-.163,1.944,2.9Z" transform="translate(-37.816 -120.663)"/>
        <path id="패스_163" data-name="패스 163" d="M72.354,164.16h-3.4v-.294H71.8l-4.292-6.373.244-.164Z" transform="translate(-47.661 -111.07)"/>
        <path id="패스_164" data-name="패스 164" d="M63.251,160.185l-.272-.112,1.331-3.229,3.423.347-.03.293-3.2-.325Z" transform="translate(-44.462 -110.729)"/>
        <path id="패스_165" data-name="패스 165" d="M170.347,143.711l-9.19,2.377-7.685-27.082h9.761Z" transform="translate(-108.348 -84.015)" fill="#ecb0df"/>
        <path id="패스_166" data-name="패스 166" d="M172.027,2.518c4.372-3.25,7.043-3,8.343-1.248s.738,4.333-3.634,7.583-12.2,4.187-12.2,4.187,3.118-7.272,7.491-10.522" transform="translate(-116.159 0)"/>
        <path id="패스_167" data-name="패스 167" d="M153.968,47.845a4.1,4.1,0,1,1-2.117-5.4,4.1,4.1,0,0,1,2.117,5.4" transform="translate(-103.151 -29.725)" fill="#ecb0df"/>
        <path id="패스_168" data-name="패스 168" d="M162.684,42a6.623,6.623,0,0,0,3.3,3.377,3.881,3.881,0,0,0-1.214-2.238A4.091,4.091,0,0,0,162.684,42" transform="translate(-114.851 -29.648)"/>
        <path id="패스_169" data-name="패스 169" d="M150.354,56.047A1.953,1.953,0,0,1,149,55.554a3.27,3.27,0,0,1-.856-2.171l.294,0a3.021,3.021,0,0,0,.761,1.956,1.753,1.753,0,0,0,1.395.4c1.7-.155,1.763-2.48,1.764-2.5l.294.005c0,.026-.071,2.613-2.031,2.791q-.134.012-.261.012" transform="translate(-104.583 -37.585)"/>
        <path id="패스_170" data-name="패스 170" d="M130.323,88.154,140.4,86.628l-.124-5.969-8.445,1.286" transform="translate(-92.005 -56.944)" fill="#6dc68f"/>
        <rect id="사각형_161" data-name="사각형 161" width="13.317" height="7.713" transform="matrix(0.809, -0.588, 0.588, 0.809, 21.376, 18.961)" fill="#e0571b"/>
        <path id="패스_171" data-name="패스 171" d="M111.532,43.147c-1.262.917-3.307.255-4.568-1.479s-1.26-3.884,0-4.8,3.307-.255,4.567,1.479,1.26,3.884,0,4.8" transform="translate(-74.847 -25.735)" fill="#ffffef"/>
        <path id="패스_172" data-name="패스 172" d="M112.746,48.187a.992.992,0,1,1,.455-1.513,1.139,1.139,0,0,1-.455,1.513" transform="translate(-78.379 -32.718)" fill="#28214e"/>
        <path id="패스_173" data-name="패스 173" d="M117.674,46.229c-.135.122-.423.022-.645-.223s-.292-.542-.158-.664.423-.022.645.223.293.542.158.664" transform="translate(-82.46 -31.974)" fill="#28214e"/>
        <path id="패스_174" data-name="패스 174" d="M104.316,73.965l7.647,6.209,4.173-4.61-7.647-6.209Z" transform="translate(-73.645 -48.963)" fill="#6dc68f"/>
        <path id="패스_175" data-name="패스 175" d="M92,54.432a.931.931,0,0,0-.487.977l-1.15-1a.984.984,0,0,0-1.385.062.943.943,0,0,0-.195.852.924.924,0,0,0-1.013,1.161.924.924,0,0,0-1.013,1.161.944.944,0,0,0-.819.308.984.984,0,0,0,.126,1.381l5.185,3.89L93.666,60.6,95.419,58.6l-2.078-3.73A1.021,1.021,0,0,0,92,54.432" transform="translate(-60.511 -38.229)" fill="#ecb0df"/>
        <rect id="사각형_162" data-name="사각형 162" width="0.294" height="2.627" transform="matrix(0.626, -0.78, 0.78, 0.626, 26.153, 19.505)"/>
        <rect id="사각형_163" data-name="사각형 163" width="0.294" height="2.627" transform="matrix(0.626, -0.78, 0.78, 0.626, 27.132, 18.332)"/>
        <rect id="사각형_164" data-name="사각형 164" width="0.294" height="2.627" transform="matrix(0.626, -0.78, 0.78, 0.626, 28.11, 17.159)"/>
        <path id="패스_176" data-name="패스 176" d="M165.576,126.56l-9.19,2.377-2.913-9.932h9.761Z" transform="translate(-108.348 -84.015)" fill="#437ced"/>
        <path id="패스_177" data-name="패스 177" d="M136.312,213.933h-8.094a5.95,5.95,0,0,0-5.95,5.95v.47h14.044Z" transform="translate(-86.319 -151.032)" fill="#28214e"/>
        <path id="패스_178" data-name="패스 178" d="M145.055,146.516h-9.39l-1.026-28.16H144.4Z" transform="translate(-95.052 -83.557)" fill="#ecb0df"/>
        <path id="패스_179" data-name="패스 179" d="M144.738,127.725h-9.832l-.267-9.369h9.832Z" transform="translate(-95.052 -83.557)" fill="#437ced"/>
        <rect id="사각형_165" data-name="사각형 165" width="0.294" height="12.015" transform="translate(49.584 39.964) rotate(-0.464)"/>
        <path id="패스_180" data-name="패스 180" d="M142.3,66.7h-1.135a7.211,7.211,0,0,0-7.19,7.19v8.432h15.515V73.892a7.211,7.211,0,0,0-7.19-7.19" transform="translate(-94.582 -47.09)" fill="#6dc68f"/>
      </g>
    </g>
  </g>
</svg>
