<svg xmlns="http://www.w3.org/2000/svg" width="79.905" height="15" viewBox="0 0 79.905 15">
  <g id="그룹_129" data-name="그룹 129" transform="translate(-151.556 -28)">
    <path id="패스_9" data-name="패스 9" d="M14.972,9.986H8.828V4.569H0V.3H14.972Zm0,4.8H0V10.515H14.972Z" transform="translate(151.556 27.967)" fill="#aaa"/>
    <path id="패스_10" data-name="패스 10" d="M18.264,4.251a9.79,9.79,0,0,0,3.759-.759V2.963a9.789,9.789,0,0,1-3.759.758V.3h9.2V4.48a6.526,6.526,0,0,1-3.02.6v.53a8,8,0,0,0,3.69-.828V.3h5.1V9.669a14.7,14.7,0,0,1-5.1.812V7.938c-1.43.707-4.237.83-7.5.83-1.589,0-2.366-.582-2.366-2.153Zm5.4,4.994c0,1.447,1.289,1.818,3.108,1.87a17.221,17.221,0,0,0,6.462-.777v3.9a24.761,24.761,0,0,1-6.886.795c-5.968,0-8.37-1.517-7.8-5.788Z" transform="translate(149.526 27.967)" fill="#aaa"/>
    <path id="패스_11" data-name="패스 11" d="M36.526,11.857V.3h4.219V3.474h.583V.3h4.22V14.787H39.457a2.6,2.6,0,0,1-2.931-2.93M39.263,7.71l-.318.476a10.732,10.732,0,0,0,4.113.795v-.53a10.674,10.674,0,0,1-3.8-.741m11.529,7.077H46.219V.3h4.573V4.9h1.342V9.068H50.792Z" transform="translate(147.495 27.967)" fill="#aaa"/>
    <path id="패스_12" data-name="패스 12" d="M54.591,7.5c0-5.594,1.783-7.5,4.767-7.5,3,0,4.785,1.907,4.785,7.5,0,5.576-1.783,7.5-4.785,7.5-2.984,0-4.767-1.906-4.767-7.5M57.7,6.583l-.318.476a9.865,9.865,0,0,0,3.936.795v-.53A9.712,9.712,0,0,1,57.7,6.583M69.74,14.754h-5.1V.265h5.1Z" transform="translate(145.487 28)" fill="#aaa"/>
    <path id="패스_13" data-name="패스 13" d="M73.054.3h4.925V1.887H83.1V.3h4.926V10H75.278a2.025,2.025,0,0,1-2.224-2.223Zm0,10.57H88.026v3.917H73.054Zm5.191-5.135a17.607,17.607,0,0,0,4.644.582V5.786A18.319,18.319,0,0,1,78.439,5.2Z" transform="translate(143.435 27.967)" fill="#aaa"/>
  </g>
</svg>
