<?xml version="1.0" encoding="UTF-8"?>
<svg id="Layer_2" data-name="Layer 2" xmlns="http://www.w3.org/2000/svg" viewBox="0 0 89.89 16.87">
  <defs>
    <style>
      .cls-1 {
        fill: #168249;
      }
    </style>
  </defs>
  <g id="Layer_1-2" data-name="Layer 1">
    <path class="cls-1" d="m16.83,11.2h-6.91v-6.09H0V.3h16.83v10.9Zm0,5.4H0v-4.8h16.83v4.8Z"/>
    <path class="cls-1" d="m18.26,4.75c1.33,0,3.12-.32,4.23-.85v-.6c-1.11.54-2.9.85-4.23.85V.3h10.34v4.71c-1.01.54-2.24.67-3.4.67v.6c1.03-.04,3.04-.18,4.15-.93V.3h5.74v10.54c-1.39.58-4.21,1.01-5.74.91v-2.86c-1.61.79-4.76.93-8.44.93-1.79,0-2.66-.66-2.66-2.42v-2.66Zm6.07,5.62c0,1.63,1.45,2.04,3.49,2.1,2.5.08,5.28-.08,7.27-.87v4.39c-2.32.64-4.59.89-7.74.89-6.71,0-9.41-1.71-8.77-6.51h5.76Z"/>
    <path class="cls-1" d="m36.53,13.3V.3h4.74v3.57h.66V.3h4.75v16.3h-6.85c-2.18,0-3.3-1.11-3.3-3.3Zm3.08-4.67l-.36.54c1.31.6,3.14.89,4.62.89v-.6c-1.49,0-3.1-.36-4.27-.83Zm12.96,7.96h-5.14V.3h5.14v5.18h1.51v4.68h-1.51v6.43Z"/>
    <path class="cls-1" d="m54.59,8.44c0-6.29,2-8.44,5.36-8.44s5.38,2.14,5.38,8.44-2,8.44-5.38,8.44-5.36-2.14-5.36-8.44Zm3.49-1.03l-.36.54c1.31.6,2.94.89,4.43.89v-.6c-1.49,0-2.9-.36-4.07-.83Zm13.54,9.19h-5.74V.3h5.74v16.3Z"/>
    <path class="cls-1" d="m73.05.3h5.54v1.79h5.76V.3h5.54v10.92h-14.33c-1.59,0-2.5-.91-2.5-2.5V.3Zm0,16.3v-4.41h16.83v4.41h-16.83Zm5.84-10.18c1.53.48,3.73.66,5.22.66v-.6c-1.49,0-3.51-.24-5-.65l-.22.59Z"/>
  </g>
</svg>