<?xml version="1.0" encoding="UTF-8"?>
<svg id="Layer_2" data-name="Layer 2" xmlns="http://www.w3.org/2000/svg" xmlns:xlink="http://www.w3.org/1999/xlink" viewBox="0 0 329.19 329.15">
  <defs>
    <style>
      .cls-1 {
        fill: none;
      }

      .cls-2 {
        clip-path: url(#clippath);
      }

      .cls-3 {
        fill: #00d08f;
      }

      .cls-4 {
        fill: #008bff;
      }

      .cls-5 {
        fill: #272425;
      }

      .cls-6 {
        fill: #272727;
      }
    </style>
    <clipPath id="clippath">
      <circle class="cls-1" cx="164.54" cy="164.62" r="164.54"/>
    </clipPath>
  </defs>
  <g id="Layer_1-2" data-name="Layer 1">
    <g>
      <g>
        <circle class="cls-4" cx="164.66" cy="164.54" r="164.54"/>
        <g class="cls-2">
          <g>
            <path class="cls-3" d="m368.94-36.38c-6.67-8.97-19.02-12.99-29.92-10.48-4.24.98-9.09,2.72-12.61.16-2.9-2.11-3.44-6.24-5.77-8.96-2.31-2.71-6.03-3.67-9.51-4.47-51.56-11.9-103.6-21.72-155.95-29.42-17.69-2.6-35.69-4.97-53.38-2.38-29.35,4.3-55.81,21.93-85.4,24.05-12.67.91-27.45-.3-35.83,9.25-1.7,1.93-3.02,4.23-5.04,5.83-6.34,4.99-15.38.89-23-1.76-24.82-8.63-55.02,2.8-67.92,25.69-7.69-7.57-12.82-17.7-14.35-28.39-.82,15.34-1.63,30.67-2.45,46.01-.49-8.22-14.36-12.52-19.28-5.17-5.25,7.85,3.88,19.9,13.08,17.76l-17.78,79.83c-.65,2.92-1.3,5.94-.75,8.88,1.34,7.09,8.94,11.03,15.88,13,8.17,2.32,17.47,3.85,21.52,12.22,2.03,4.19.83,9.37-3.07,11.93-5.86,3.85-10.02-2.88-15.68-.47-1.54.66-2.77,1.89-3.6,3.35-3.82,6.73,4.01,12.4,9.31,9.89,2.13,4.85-1.94,10.25-6.47,12.99-4.53,2.74-9.96,4.4-13.22,8.57-2.63,3.36-3.37,7.78-3.97,12-9.94,70.14-3.5,141.46,2.97,212.01,9.3.36,15.75-9.21,18.62-18.07,3.36-10.35,5.16-22.4,16.06-27.34,2.39-1.08,4.49-2.76,6.03-4.87,4.51-6.18.12-9.92-2.22-14.23-6.97-12.84,4.69-27.57,15.49-37.41,10.79-9.85,22.69-24.23,16.15-37.3-6.08,4.19-14.65,3.21-20.93-.69s-10.65-10.2-14.31-16.62c-7.17-12.6-12.28-26.37-15.05-40.6,15.68,8.63,16.73,30.24,24.38,46.42,1.13,2.4,2.74,4.94,5.33,5.52,1.83.41,3.71-.29,5.46-.98,8.42-3.32,16.84-6.64,25.25-9.95,8.44-3.33,17.39-7.02,21.04-16.23,1.74-4.38,1.05-9.47-2.17-12.92-5.82-6.24-14.94-2.88-22.9-3.35-7.37-.44-14.85-10.35-8.58-14.25,16.05,4.06,32.1,8.11,48.14,12.17,4.7,1.19,9.52,2.43,13.46,5.25,5.54,3.97,8.57,10.47,11.35,16.68,8.57,19.14,19,40.27,38.82,47.14.39-14.36,1.84-29.75,11-40.81,9.17-11.06,28.74-14.33,37.32-2.81,7.69,10.33,2.6,24.76,2.28,37.63-.42,17.09,9.2,33.99,23.89,42.65,1.01.59,2.12-.55,1.54-1.56-3.62-6.32-5.24-13.79-4.45-21.04.63-5.84,2.69-12.05.12-17.33-3.4-6.99-13.33-8.8-14.98-17.61-.65-3.47,1.72-6.77,5.24-6.96,7.7-.41,6.97,14.8,17,13.25,2.74-.42,5.13-2.07,6.77-4.32,6.67-9.16,5.91-22.64-1.25-31.25,12.85-3.83,26.21-7.95,35.95-17.16,9.75-9.21,14.56-25.14,7.13-36.3,5.02-3.17,7.88-9.43,6.99-15.3l-9.45-1.69c3.59-7.92,15.72-10.11,21.85-3.95-1.02,2.51-1.56,5.19-1.66,7.89-.3,8.5,9.48,13.54,16.32,8.49,3.27-2.41,6.14-5.36,8.45-8.7,2.12-3.07.53-7.26-3.02-8.41-2.99-.97-5.74-2.66-7.9-4.94,26.62-9.91,46.33-36.28,48.15-64.66.07-1.16-.1-2.33-.6-3.38-3.21-6.68-14.56.43-20.54-3.89-1.69-5.77,2.05-12.55,7.83-14.2l28.5-13.93c2.59-.13,5.16-.44,7.65-1.2,3.99-1.21,7.56-3.48,11.07-5.73,4.92-3.14,9.84-6.28,14.76-9.42l15.58-7.61c3.84-3.39,9.2-4.99,14.27-4.25-1.9,12.59-13.55,20.89-23.08,29.34-9.52,8.45-18.24,21.79-12.46,33.14,1.61,3.16,4.67,5.94,8.21,5.84,2-.06,3.89-1.03,5.41-2.32,12.14-10.3,2.75-36.86,17.88-41.84,3.67-1.21,7.79-.46,11.41-1.79,5.03-1.85,7.8-7.09,11.52-10.94,10.2-10.55,28.1-10.94,37.57-22.15,7.22-8.54,7.15-22.11.48-31.08Z"/>
            <path class="cls-3" d="m239.81,68.38c-1.73,12.77-1.35,25.83,1.11,38.48.19.96,1.48,1.18,1.97.33,3.59-6.21,5.01-13.6,4.64-20.78s-2.34-13.93-5.16-20.43c-.41-.94-1.77-.82-2.02.17l-.52,2.1s-.02.08-.02.13Z"/>
            <path class="cls-3" d="m245.09,121.88c-2.03-.42-4.06-.84-6.08-1.26-1.54-.32-3.2-.62-4.61.06-.81.39-1.4,1.25-1.54,2.11-.15.92.83,1.63,1.7,1.29l2.77-1.07c-4.04,3.87-8.09,9.41-9.31,14.87-.22.96-.32,2.13.42,2.79.6.53,1.51.48,2.3.34,8.11-1.36,14.99-8.27,16.31-16.39.11-.66.16-1.41-.24-1.95-.39-.52-1.08-.68-1.71-.81Z"/>
            <path class="cls-3" d="m202.82,164.3c-4.43,3-9.4,7.05-8.91,12.38.08.89.47,1.91,1.34,2.1.46.1.92-.06,1.36-.23,2.74-1.01,5.47-2.03,8.21-3.04,5.03-1.86,10.22-3.83,14.02-7.62,3.2-3.19,7.54-10.84,7.28-15.98-.07-1.33-1.49-2.15-2.67-1.53h0c-.06.03-.12.07-.18.11-6.82,4.61-13.64,9.21-20.45,13.82Z"/>
            <path class="cls-3" d="m162.13,215.09s.04.05.06.07c.43.55,1.28.47,1.61-.14,0-.01.01-.02.02-.03.33-.6-.04-1.35-.72-1.44h-.09c-.86-.12-1.41.87-.88,1.54Z"/>
            <path class="cls-3" d="m174.62,234.19c-2.78-5.24-5.93-10.28-9.43-15.06-.94-1.29-2.95-1.1-3.59.37-1.79,4.12-3.04,8.48-3.7,12.93-.33,2.27-.5,4.66.36,6.79.7,1.72,2.01,3.11,3.3,4.46,4.46,4.67,8.92,9.35,13.38,14.02,1.05,1.1,2.87.73,3.45-.68,1.29-3.18,1.51-6.81.96-10.22-.72-4.45-2.63-8.62-4.74-12.6Z"/>
          </g>
        </g>
      </g>
      <g>
        <path class="cls-6" d="m133.78,141.15c3.9,4.33,9.81,6.61,15.62,6.11,2.79-.24,5.51-1.07,7.91-2.55,1.43-.88,2.75-1.97,3.99-3.1.59-.54,1.16-1.1,1.73-1.66.34-.34.68-.68,1.02-1.02.91-.52.94-.79.09-.81-.89-.27-.81-.14.26.39l.85.53c.86.52,1.71,1.05,2.58,1.55,1.45.83,2.92,1.61,4.45,2.28,3.24,1.41,6.74,2.39,10.3,2.26,6.13-.24,11.76-3.87,13.49-9.9,1.08-3.77-4.79-5.38-5.87-1.62-1.59,5.53-8.03,6.11-12.75,4.73-2.8-.82-5.36-2.28-7.85-3.77-2-1.2-4.38-3.31-6.88-2.33-2.25.89-3.99,3.49-5.74,5.07-1.9,1.72-3.93,3.09-6.46,3.66-4.6,1.02-9.33-.66-12.44-4.12-2.63-2.92-6.92,1.4-4.31,4.31h0Z"/>
        <circle class="cls-5" cx="135.93" cy="119.34" r="8.2"/>
        <circle class="cls-5" cx="193.14" cy="117.27" r="8.2"/>
      </g>
    </g>
  </g>
</svg>